<svg xmlns="http://www.w3.org/2000/svg" viewBox="0 0 1644 1303" width="1644" height="1303">
	<style>
		tspan { white-space:pre }
		.shp0 { fill: #527d97 } 
		.shp1 { fill: #2c2e35 } 
		.shp2 { fill: #ffffff } 
		.shp3 { fill: #eab97a } 
		.shp4 { fill: #1f282d } 
		.shp5 { fill: #ff0000 } 
		.shp6 { fill: #9b6a27 } 
		.shp7 { fill: #000000 } 
	</style>
	<g id="Layer 1">
		<path id="&lt;Path&gt;" class="shp0" d="M1472.24 1266.3C1560.23 1138.63 1611.51 983.75 1610.92 816.95C1609.36 381.84 1255.38 30.38 820.29 31.94C385.19 33.49 33.74 387.48 35.29 822.59C35.89 989.39 88.28 1143.9 177.18 1270.94C374.84 1226.55 593.88 1201.47 824.47 1200.64C1055.06 1199.82 1274.27 1223.33 1472.24 1266.3Z" />
		<path id="&lt;Path&gt;" class="shp1" d="M673.21 620.01C703.44 648.12 733.4 662.04 734.66 662.62C736.26 663.36 737.97 663.72 739.68 663.71C741.88 663.7 744.08 663.08 746 661.87C749.4 659.72 751.5 655.99 751.55 651.96L752.92 558.32C752.98 553.93 750.63 549.86 746.79 547.72C746.47 547.55 714.47 529.37 710.51 492.89C710.49 492.67 710.46 492.46 710.42 492.24C709.24 483.01 708.8 457.56 720.34 445.22C729.01 435.93 736.08 433.89 745.04 431.31C751.71 429.39 759.28 427.2 767.34 421.91C767.61 421.74 767.87 421.55 768.12 421.35C800.19 396.37 806.77 363.63 785.72 333.78C777.52 322.15 764.84 316.04 749.07 316.09C694.22 316.29 610.45 393.49 610.79 488.23C610.97 536.63 632.55 582.2 673.21 620.01Z" />
		<path id="&lt;Path&gt;" class="shp2" d="M711.63 437.08C729.72 417.72 744.26 422.81 760.79 411.95C760.79 411.95 760.8 411.95 760.8 411.95C774.69 401.12 800.1 374.85 775.98 340.65C744.04 295.36 622.32 378.09 622.71 488.19C622.97 561.59 661.95 616.12 739.64 651.79L741 558.14C715.89 544.19 701.78 522.87 698.66 494.18L698.66 494.18C695.24 469.02 699.57 449.99 711.63 437.08Z" />
		<path id="&lt;Path&gt;" class="shp1" d="M830.15 955.7C826.51 954.51 822.53 955.15 819.44 957.4C816.35 959.65 814.53 963.25 814.54 967.07L814.74 1021.56C814.75 1024.9 816.17 1028.09 818.65 1030.34C825.92 1036.94 831.09 1055.8 783.94 1107.95C779.09 1113.31 776.65 1116.01 777.11 1121.41C778.08 1132.78 786.35 1140.1 798.19 1140.05C815.56 1139.99 838.13 1124.43 852.18 1111.12C864.56 1099.4 885.3 1075.61 885.2 1047.98C884.94 974.37 832.38 956.43 830.15 955.7Z" />
		<path id="&lt;Path&gt;" class="shp2" d="M788.98 1120.4C788.84 1118.7 859.68 1051.48 826.65 1021.52C826.57 997.3 826.5 979.14 826.46 967.03C857.52 977.14 873.13 1004.13 873.29 1048.02C873.46 1095.7 791.36 1148.2 788.98 1120.4Z" />
		<g id="&lt;Group&gt;">
			<path id="&lt;Path&gt;" class="shp1" d="M749.65 942.05C747.87 941.25 728.15 931.53 728.02 895.87C727.9 860.35 784.77 832.55 815.33 817.62C817.71 816.45 819.98 815.34 822.09 814.3C855.46 797.75 911.42 759.8 911.17 691.47C910.93 624.28 820.77 577.08 816.93 575.11C813.23 573.2 808.8 573.36 805.25 575.54C801.7 577.71 799.54 581.58 799.56 585.74L799.92 687.33C799.94 692.46 803.24 697 808.11 698.61C813.23 700.3 832.35 708.99 832.39 720.7C832.42 727.79 823.51 744.28 763.62 775.02C719.7 797.57 660.58 833.68 654.3 886.75C646.87 949.57 678.33 998.38 738.46 1017.3C739.65 1017.67 740.87 1017.85 742.08 1017.85C744.58 1017.84 747.04 1017.04 749.11 1015.52C752.17 1013.27 753.97 1009.69 753.96 1005.88C753.84 973.56 756.96 955.39 756.99 955.22C758.01 949.49 755.12 944.01 749.65 942.05Z" />
			<path id="&lt;Path&gt;" class="shp3" d="M745.26 953.14C725.93 945.64 716.22 926.56 716.11 895.92C715.94 849.95 784.5 819.62 816.8 803.62C849.09 787.61 899.47 752.24 899.25 691.52C899.11 651.03 869.85 615.76 811.47 585.7L811.84 687.29C833.43 694.4 844.25 705.53 844.31 720.66C844.39 743.36 805.16 767.09 769.06 785.63C730 805.67 671.87 839.68 666.14 888.15C660.63 934.71 677.84 985.73 742.04 1005.93C741.96 983.23 743.03 965.63 745.26 953.14Z" />
		</g>
		<g id="&lt;Group&gt;">
			<path id="&lt;Path&gt;" class="shp4" d="M766.32 1197.55C785.59 1196.17 804.76 1195.61 823.91 1196.27C823.91 1196.1 823.93 1195.93 823.93 1195.76L820.58 259.5C820.5 238.46 803.39 221.47 782.35 221.55C761.32 221.62 744.33 238.74 744.4 259.77L747.75 1196.03C747.76 1196.86 747.8 1197.69 747.85 1198.51C754.04 1198.27 760.21 1197.99 766.32 1197.55Z" />
			<path id="&lt;Path&gt;" class="shp1" d="M754.9 1198.21C754.85 1197.48 754.79 1196.75 754.78 1196L751.43 259.75C751.37 242.62 765.25 228.64 782.38 228.58C799.5 228.52 813.48 242.4 813.54 259.52L816.89 1195.78C816.89 1195.88 816.88 1195.98 816.88 1196.08C821.57 1196.17 826.25 1196.34 830.94 1196.58C830.94 1196.3 830.96 1196.01 830.96 1195.73L827.61 259.47C827.52 234.6 807.2 214.43 782.33 214.52C757.45 214.61 737.28 234.92 737.37 259.8L740.72 1196.05C740.72 1196.97 740.76 1197.87 740.82 1198.76C745.53 1198.6 750.23 1198.43 754.9 1198.21Z" />
		</g>
		<g id="&lt;Group&gt;">
			<path id="&lt;Path&gt;" class="shp1" d="M763.62 775.02C757.97 777.92 752.07 781.05 746.07 784.4L746.34 860.6C765.62 841.93 795.83 827.15 815.33 817.62C816.94 816.83 818.47 816.08 819.96 815.34L819.69 739.69C809.85 748.46 792.8 760.04 763.62 775.02Z" />
			<path id="&lt;Path&gt;" class="shp3" d="M873.95 634.23C873.36 644.49 872.28 654.67 870.84 664.85C869.75 672.62 868.95 681.34 866.19 688.74C860.89 702.95 854.27 718.52 842.79 728.59C835.31 748.8 800.98 769.24 769.06 785.63C730 805.67 671.87 839.68 666.14 888.15C662.3 920.55 669.5 955.1 695.85 979.94C703.49 964.99 714.53 951.63 726.54 939.62C727.01 939.15 727.5 938.67 727.98 938.2C721.74 929.41 716.18 915.97 716.11 895.92C715.94 849.95 784.5 819.62 816.8 803.62C849.09 787.61 899.47 752.24 899.25 691.52C899.18 670.03 888.16 650.5 873.95 634.23Z" />
		</g>
		<path id="&lt;Path&gt;" class="shp1" d="M834.34 957.38C834.79 959.21 835.1 961.1 835.24 963.03C836.8 984.44 837.35 1006.39 832.23 1027.43C829.09 1040.3 824.87 1055.53 815.75 1065.66C809.84 1076.49 799.89 1090.31 783.94 1107.95C779.09 1113.31 776.65 1116.01 777.11 1121.41C778.08 1132.78 786.35 1140.1 798.19 1140.05C815.56 1139.99 838.13 1124.43 852.18 1111.12C864.56 1099.4 885.3 1075.61 885.2 1047.98C884.98 985.62 847.23 963.22 834.34 957.38Z" />
		<path id="&lt;Path&gt;" class="shp3" d="M788.98 1120.4C788.84 1118.7 859.68 1051.48 826.65 1021.52C826.57 997.3 826.5 979.14 826.46 967.03C857.52 977.14 873.13 1004.13 873.29 1048.02C873.46 1095.7 791.36 1148.2 788.98 1120.4Z" />
		<path id="&lt;Path&gt;" class="shp1" d="M673.21 620.01C703.44 648.12 733.4 662.04 734.66 662.62C736.26 663.36 737.97 663.72 739.68 663.71C741.88 663.7 744.08 663.08 746 661.87C749.4 659.72 751.5 655.99 751.55 651.96L752.92 558.32C752.98 553.93 750.63 549.86 746.79 547.72C746.47 547.55 714.47 529.37 710.51 492.89C710.49 492.67 710.46 492.46 710.42 492.24C709.24 483.01 708.8 457.56 720.34 445.22C729.01 435.93 736.08 433.89 745.04 431.31C751.71 429.39 759.28 427.2 767.34 421.91C767.61 421.74 767.87 421.55 768.12 421.35C800.19 396.37 806.77 363.63 785.72 333.78C777.52 322.15 764.84 316.04 749.07 316.09C694.22 316.29 610.45 393.49 610.79 488.23C610.97 536.63 632.55 582.2 673.21 620.01Z" />
		<path id="&lt;Path&gt;" class="shp1" d="M673.21 620.01C703.44 648.12 733.4 662.04 734.66 662.62C736.26 663.36 737.97 663.72 739.68 663.71C741.88 663.7 744.08 663.08 746 661.87C749.4 659.72 751.5 655.99 751.55 651.96L752.92 558.32C752.98 553.93 750.63 549.86 746.79 547.72C746.47 547.55 714.47 529.37 710.51 492.89C710.49 492.67 710.46 492.46 710.42 492.24C709.24 483.01 708.8 457.56 720.34 445.22C729.01 435.93 736.08 433.89 745.04 431.31C751.71 429.39 759.28 427.2 767.34 421.91C767.61 421.74 767.87 421.55 768.12 421.35C800.19 396.37 806.77 363.63 785.72 333.78C777.52 322.15 764.84 316.04 749.07 316.09C694.22 316.29 610.45 393.49 610.79 488.23C610.97 536.63 632.55 582.2 673.21 620.01Z" />
		<path id="&lt;Path&gt;" class="shp3" d="M711.63 437.08C729.72 417.72 744.26 422.81 760.79 411.95C760.79 411.95 760.8 411.95 760.8 411.95C774.69 401.12 800.1 374.85 775.98 340.65C744.04 295.36 622.32 378.09 622.71 488.19C622.97 561.59 661.95 616.12 739.64 651.79L741 558.14C715.89 544.19 701.78 522.87 698.66 494.18L698.66 494.18C695.24 469.02 699.57 449.99 711.63 437.08Z" />
		<path id="&lt;Path&gt;" class="shp4" d="M734.09 369.18C734.07 363.77 729.67 359.4 724.26 359.42C718.85 359.44 714.49 363.84 714.51 369.25C714.53 374.66 718.92 379.02 724.33 379C729.74 378.98 734.1 374.59 734.09 369.18Z" />
		<path id="&lt;Compound Path&gt;" fill-rule="evenodd" class="shp1" d="M1482.8 1292.99L1467.19 1289.6C1264.44 1245.59 1048.23 1223.68 824.55 1224.48C600.88 1225.28 384.82 1248.74 182.4 1294.19L166.81 1297.7L157.65 1284.6C62.61 1148.78 12.05 989.04 11.46 822.67C11.07 713.11 32.15 606.73 74.12 506.5C114.66 409.7 172.87 322.69 247.13 247.88C321.4 173.08 407.99 114.25 504.49 73.02C604.42 30.34 710.64 8.49 820.2 8.1C929.76 7.71 1036.14 28.79 1136.37 70.76C1233.17 111.3 1320.17 169.51 1394.97 243.78C1469.77 318.05 1528.6 404.64 1569.83 501.15C1612.52 601.08 1634.36 707.3 1634.75 816.87C1635.35 983.24 1585.94 1143.33 1491.87 1279.83L1482.8 1292.99ZM824.38 1176.81C1045.72 1176.01 1259.95 1197.14 1461.48 1239.62C1544.24 1114.09 1587.62 968.32 1587.08 817.04C1585.57 395.77 1241.63 54.26 820.37 55.77C399.11 57.28 57.62 401.23 59.13 822.5C59.67 973.79 104.09 1119.24 187.75 1244.18C388.97 1200.26 603.05 1177.6 824.38 1176.81Z" />
		<path id="Shape 1" class="shp5" d="" />
		<path id="&lt;Path&gt;" class="shp6" d="M800.59 1128.13C858.58 1080.04 879.77 1038.57 864.16 1003.71C878.48 1018.79 889.03 1060.25 873.39 1077.31C862.96 1088.68 841.96 1106.92 810.39 1132.03L800.59 1128.13Z" />
		<path id="&lt;Path&gt;" class="shp6" d="M691.34 975.38C660.09 905.01 690.35 839.46 782.13 778.73C671.25 814.53 663.44 866.06 661.49 881.56C659.55 897.07 666.8 963.9 691.34 975.38Z" />
		<path id="&lt;Path&gt;" class="shp6" d="M875.54 636.07C900.25 698.44 876.53 756.32 804.39 809.7C878.7 802.04 907.59 722.7 905.51 700.2C900.83 661.13 890.84 639.76 875.54 636.07Z" />
		<path id="&lt;Path&gt;" class="shp6" d="M739.64 651.79C638.18 562.24 615.99 468.11 673.06 369.4C633.88 392.62 615.24 437.39 617.14 503.72C619.05 570.05 659.88 619.4 739.64 651.79Z" />
		<path id="&lt;Path&gt;" class="shp7" d="M666.14 888.15C671.87 839.68 730 805.67 769.06 785.63C805.16 767.09 844.39 743.36 844.31 720.66C844.26 706.56 831.75 697.11 822.27 691.96C822.1 696.37 821.71 700.75 820.97 705.08C826.86 709.01 832.37 714.42 832.39 720.7C832.42 727.79 823.51 744.28 763.62 775.02C719.7 797.57 660.58 833.68 654.3 886.75C646.87 949.57 678.33 998.38 738.46 1017.3C739.65 1017.67 740.87 1017.85 742.08 1017.85C742.22 1017.84 742.36 1017.83 742.5 1017.83C742.24 1013.86 742.02 1009.88 741.98 1005.91C677.83 985.69 660.63 934.7 666.14 888.15Z" />
		<path id="&lt;Path&gt;" class="shp7" d="M818.74 576.07C820.72 581.32 821.9 586.67 822.54 592.07C846.1 606.53 899.08 644.29 899.25 691.52C899.47 752.24 849.09 787.61 816.8 803.62C784.5 819.62 715.94 849.95 716.11 895.92C716.27 941.54 744.8 952.96 745.23 953.13C745.56 948.74 745.87 944.36 746.17 939.97C740.02 935.59 728.12 923.54 728.02 895.87C727.9 860.35 784.77 832.55 815.33 817.62C817.71 816.45 819.98 815.34 822.09 814.3C855.46 797.75 911.42 759.8 911.17 691.47C910.95 628.66 832.15 583.33 818.74 576.07Z" />
		<path id="&lt;Path&gt;" class="shp7" d="M745.22 953.35C744.88 955.38 742.21 972.16 742.05 1001.23C742.06 1000.9 742.06 1000.57 742.08 1000.24C742.84 984.6 744.07 968.97 745.22 953.35Z" />
		<path id="&lt;Compound Path&gt;" fill-rule="evenodd" class="shp7" d="M768.12 421.35C767.87 421.55 767.61 421.74 767.34 421.91C759.28 427.2 751.71 429.39 745.04 431.31C736.08 433.89 729.01 435.93 720.34 445.22C708.8 457.56 709.24 483.01 710.42 492.24C710.46 492.46 710.49 492.67 710.51 492.89C713.95 524.54 738.48 542.41 745.13 546.7L745.54 662.14C743.73 663.17 741.71 663.7 739.68 663.71C737.97 663.72 736.26 663.36 734.66 662.62C733.4 662.04 703.44 648.12 673.21 620.01C632.55 582.2 610.97 536.63 610.79 488.23C610.45 393.49 694.22 316.29 749.07 316.09C764.84 316.04 777.52 322.15 785.72 333.78C806.77 363.63 800.19 396.37 768.12 421.35ZM775.98 340.65C744.04 295.36 622.32 378.09 622.71 488.19C622.97 561.59 661.95 616.12 739.64 651.79L741 558.14C715.89 544.19 701.78 522.87 698.66 494.18L698.66 494.18C695.24 469.02 699.57 449.99 711.63 437.08C729.72 417.72 744.26 422.81 760.79 411.95C760.79 411.95 760.8 411.95 760.8 411.95C774.69 401.12 800.1 374.85 775.98 340.65Z" />
		<path id="&lt;Compound Path&gt;" fill-rule="evenodd" class="shp7" d="M885.2 1047.98C885.3 1075.61 864.56 1099.4 852.18 1111.12C838.13 1124.43 815.56 1139.99 798.19 1140.05C786.35 1140.1 778.08 1132.78 777.11 1121.41C776.65 1116.01 779.09 1113.31 783.94 1107.95C827.63 1059.63 826.4 1039.89 820.19 1032L819.93 957.09C822.94 955.11 826.69 954.57 830.15 955.7C832.38 956.43 884.94 974.37 885.2 1047.98ZM873.29 1048.02C873.13 1004.13 857.52 977.14 826.46 967.03C826.5 979.14 826.57 997.3 826.65 1021.52C859.68 1051.48 788.84 1118.7 788.98 1120.4C791.36 1148.2 873.46 1095.7 873.29 1048.02Z" />
	</g>
</svg>